HIERARCHY
ROOT Hips
{
  OFFSET 50.2764 100.536 12.9216
  CHANNELS 6 Xposition Yposition Zposition Zrotation Xrotation Yrotation
  JOINT spine
  {
    OFFSET 0 8.81704 0.507024
    CHANNELS 3 Zrotation Xrotation Yrotation
    JOINT spine1
    {
      OFFSET 0 10.7766 0
      CHANNELS 3 Zrotation Xrotation Yrotation
      JOINT spine2
      {
        OFFSET 0 10.3259 0
        CHANNELS 3 Zrotation Xrotation Yrotation
        JOINT Neck
        {
          OFFSET 0 26.511 1.26395
          CHANNELS 3 Zrotation Xrotation Yrotation
          JOINT Head
          {
            OFFSET 0 8.00966 0
            CHANNELS 3 Zrotation Xrotation Yrotation
            End Site
            {
              OFFSET 0 19.3879 -6.39386
            }
          }
        }
        JOINT RightShoulder
        {
          OFFSET -4.34795 11.1512 -0.605422
          CHANNELS 3 Zrotation Xrotation Yrotation
          JOINT RightArm
          {
            OFFSET 0 14.6258 0
            CHANNELS 3 Zrotation Xrotation Yrotation
            JOINT RightArmRoll
            {
              OFFSET 0 7.3834 0
              CHANNELS 3 Zrotation Xrotation Yrotation
              JOINT RightForeArm
              {
                OFFSET 0 21.5052 0
                CHANNELS 3 Zrotation Xrotation Yrotation
                JOINT RightForeArmRoll
                {
                  OFFSET 0 8.28532 0
                  CHANNELS 3 Zrotation Xrotation Yrotation
                  JOINT RightHand
                  {
                    OFFSET 0 16.6268 0
                    CHANNELS 3 Zrotation Xrotation Yrotation
                    End Site
                    {
                      OFFSET 0 0 0
                    }
                  }
                }
              }
            }
          }
        }
        JOINT LeftShoulder
        {
          OFFSET 4.34795 11.1512 -0.605422
          CHANNELS 3 Zrotation Xrotation Yrotation
          JOINT LeftArm
          {
            OFFSET 0 14.6258 0
            CHANNELS 3 Zrotation Xrotation Yrotation
            JOINT LeftArmRoll
            {
              OFFSET 0 7.38339 0
              CHANNELS 3 Zrotation Xrotation Yrotation
              JOINT LeftForeArm
              {
                OFFSET 0 21.5052 0
                CHANNELS 3 Zrotation Xrotation Yrotation
                JOINT LeftForeArmRoll
                {
                  OFFSET 0 8.28532 0
                  CHANNELS 3 Zrotation Xrotation Yrotation
                  JOINT LeftHand
                  {
                    OFFSET 0 16.6268 0
                    CHANNELS 3 Zrotation Xrotation Yrotation
                    End Site
                    {
                      OFFSET 0 0 0
                    }
                  }
                }
              }
            }
          }
        }
      }
    }
  }
  JOINT RightUpLeg
  {
    OFFSET -7.8151 -1.43309 -1.20217
    CHANNELS 3 Zrotation Xrotation Yrotation
    JOINT RightUpLegRoll
    {
      OFFSET 0 19.4959 0
      CHANNELS 3 Zrotation Xrotation Yrotation
      JOINT RightLeg
      {
        OFFSET 0 -24.1427 0
        CHANNELS 3 Zrotation Xrotation Yrotation
        JOINT RightLegRoll
        {
          OFFSET 0 24.2217 0
          CHANNELS 3 Zrotation Xrotation Yrotation
          JOINT RightFoot
          {
            OFFSET 0 20.1605 0
            CHANNELS 3 Zrotation Xrotation Yrotation
            JOINT RightToeBase
            {
              OFFSET 0 16.8532 0
              CHANNELS 3 Zrotation Xrotation Yrotation
              End Site
              {
                OFFSET 0.00714343 8.16186 -0.940781
              }
            }
          }
        }
      }
    }
  }
  JOINT LeftUpLeg
  {
    OFFSET 7.8151 -1.43309 -1.20217
    CHANNELS 3 Zrotation Xrotation Yrotation
    JOINT LeftUpLegRoll
    {
      OFFSET 0 19.496 0
      CHANNELS 3 Zrotation Xrotation Yrotation
      JOINT LeftLeg
      {
        OFFSET 0 24.1426 0
        CHANNELS 3 Zrotation Xrotation Yrotation
        JOINT LeftLegRoll
        {
          OFFSET 0 24.4456 0
          CHANNELS 3 Zrotation Xrotation Yrotation
          JOINT LeftFoot
          {
            OFFSET 0 19.9366 0
            CHANNELS 3 Zrotation Xrotation Yrotation
            JOINT LeftToeBase
            {
              OFFSET 0 16.8532 0
              CHANNELS 3 Zrotation Xrotation Yrotation
              End Site
              {
                OFFSET -0.0320138 8.16187 -0.94078
              }
            }
          }
        }
      }
    }
  }
}
MOTION
Frames: 6
Frame Time: 0.00208333
50.5768 99.9631 10.589 -0.818166 5.35566 6.64734 -0.480185 -1.93595 0.230481 -0.953839 0.128674 0.507027 -0.960276 1.77359 0.523142 -34.4977 5.40763 4.12606 18.7536 7.46176 -1.32493 35.4882 1.84834 5.01283 118.2 34.5265 -29.0896 6.36111e-015 1.27222e-014 -3.18055e-015 12.9661 68.0109 -10.1569 -1.00052e-005 -3.72445e-006 -2.99998 8.02893 -4.95146 0.697692 -72.1721 -15.7103 8.99674 -84.9046 47.5253 34.5223 -5.16881e-006 2.82335e-006 -3.33444e-006 131.274 80.6841 -118.814 -1.2342e-005 -1.77723e-006 3.00011 -8.02894 -4.95147 -0.697676 179.985 10.9697 -1.90961 180 7.01588e-015 179.118 178.23 11.0494 179.592 -1.25957e-006 -6.71339e-007 0.109731 -19.5001 68.474 19.9436 8.16076 25.6464 -3.49762 -175.763 13.2847 0.547483 4.54188e-006 -4.6773e-006 -0.945552 -3.77953 -15.7561 -0.0103483 2.966e-007 -4.00428e-006 -0.227497 20.0516 69.6789 -21.0413 -8.1691 25.7897 2.71507 
50.5837 99.9662 10.5986 -0.818102 5.3343 6.39144 -0.470786 -1.95607 0.218433 -0.935245 0.0885598 0.481879 -0.941362 1.73348 0.497671 -34.0609 5.59037 4.25344 18.3024 7.27003 -1.15348 35.8703 1.77942 4.8768 118.17 33.9338 -29.6657 9.54166e-015 1.90833e-014 3.18055e-015 12.7275 68.5679 -10.0645 -1.00052e-005 -3.72445e-006 -2.99998 8.02893 -4.95146 0.697692 -71.9947 -15.5891 8.94747 -84.5951 47.9197 34.0555 -5.16881e-006 2.82335e-006 -3.33444e-006 130.723 81.0114 -118.518 -1.2342e-005 -1.77723e-006 3.00011 -8.02894 -4.95147 -0.697676 -179.989 10.9864 -1.93172 180 7.01588e-015 179.119 178.249 11.0722 179.587 -1.25957e-006 -6.71339e-007 0.107628 -19.4509 68.4414 19.9146 8.16201 25.6649 -3.49815 -175.735 13.2008 0.509335 4.54188e-006 -4.6773e-006 -0.946851 -3.80851 -15.7584 -0.0156216 2.966e-007 -4.00428e-006 -0.227646 20.0982 69.7288 -21.0901 -8.16976 25.8036 2.70617 
50.6123 99.9725 10.6088 -0.817346 5.31407 6.13622 -0.460518 -1.97675 0.206156 -0.914924 0.047349 0.456199 -0.920715 1.69228 0.471641 -33.6327 5.78624 4.38327 17.8542 7.06787 -0.983935 36.2427 1.70473 4.73756 118.143 33.3351 -30.2439 3.53113e-031 -6.36111e-015 3.18055e-015 12.4611 69.1158 -9.94745 -1.00052e-005 -3.72445e-006 -2.99998 8.02893 -4.95146 0.697692 -71.8369 -15.4586 8.89264 -84.2269 48.3054 33.5983 -5.16881e-006 2.82335e-006 -3.33444e-006 130.179 81.3265 -118.214 -1.2342e-005 -1.77723e-006 3.0001 -8.02894 -4.95147 -0.697676 -179.965 11.0007 -1.95246 180 7.01588e-015 179.121 178.267 11.0897 179.583 -1.25957e-006 -6.71339e-007 0.105412 -19.4011 68.4077 19.8849 8.16321 25.6827 -3.4987 -175.709 13.1188 0.472097 4.54188e-006 -4.6773e-006 -0.948049 -3.83801 -15.7601 -0.0209079 2.966e-007 -4.00428e-006 -0.227703 20.144 69.7773 -21.138 -8.17039 25.8172 2.70009 
50.6324 99.97 10.6258 -0.81576 5.29455 5.88037 -0.448992 -1.99829 0.193679 -0.892096 0.00439351 0.430008 -0.897553 1.64933 0.445056 -33.2204 5.99746 4.51936 17.4116 6.85227 -0.81401 36.5974 1.62536 4.59613 118.127 32.7278 -30.8254 3.18055e-015 1.59028e-014 3.18055e-015 12.1658 69.6556 -9.80597 -1.00052e-005 -3.72445e-006 -2.99998 8.02893 -4.95146 0.697692 -71.7044 -15.318 8.83236 -83.7891 48.6815 33.1496 -5.16881e-006 2.82335e-006 -3.33444e-006 129.681 81.6259 -117.937 -1.2342e-005 -1.77723e-006 3.0001 -8.02894 -4.95147 -0.697676 -179.943 11.0125 -1.9724 180 7.01589e-015 179.122 178.286 11.1029 179.579 -1.25957e-006 -6.71339e-007 0.10314 -19.3504 68.3729 19.8542 8.16441 25.7004 -3.49925 -175.684 13.0377 0.435282 4.54188e-006 -4.6773e-006 -0.949171 -3.86839 -15.7605 -0.0262653 2.966e-007 -4.00428e-006 -0.227665 20.1889 69.8247 -21.1849 -8.171 25.8303 2.69652 
50.6667 99.977 10.6393 -0.813527 5.27573 5.62397 -0.436441 -2.02052 0.181026 -0.867228 -0.0399177 0.403375 -0.872346 1.60503 0.417995 -32.8196 6.22227 4.66023 16.9723 6.6248 -0.644123 36.9383 1.54119 4.45225 118.118 32.1137 -31.4097 -3.18055e-015 1.90833e-014 3.18055e-015 11.8389 70.1875 -9.63742 -1.00052e-005 -3.72445e-006 -2.99998 8.02893 -4.95146 0.697692 -71.5928 -15.1681 8.76705 -83.2912 49.0494 32.707 -5.16881e-006 2.82335e-006 -3.33444e-006 129.211 81.9132 -117.674 -1.2342e-005 -1.77723e-006 3.0001 -8.02894 -4.95147 -0.697676 -179.921 11.0225 -1.99171 180 7.01589e-015 179.124 178.304 11.1125 179.575 -1.25957e-006 -6.71339e-007 0.100817 -19.2989 68.3371 19.8229 8.16559 25.718 -3.4998 -175.66 12.9574 0.398859 4.54188e-006 -4.6773e-006 -0.950222 -3.89949 -15.7599 -0.0316807 2.966e-007 -4.00428e-006 -0.227545 20.2332 69.8711 -21.2313 -8.17159 25.843 2.69529 
50.674 99.9729 10.6468 -0.810829 5.25761 5.36711 -0.423098 -2.04322 0.168221 -0.84079 -0.0851954 0.376371 -0.845563 1.55976 0.390538 -32.426 6.45894 4.80443 16.534 6.38706 -0.474686 37.2691 1.45212 4.30569 118.111 31.4942 -31.9965 -1.05934e-030 -6.36111e-015 -9.54166e-015 11.4772 70.712 -9.43898 -1.00052e-005 -3.72445e-006 -2.99998 8.02893 -4.95146 0.697692 -71.4972 -15.0098 8.69713 -82.7423 49.4105 32.2677 -5.16881e-006 2.82335e-006 -3.33444e-006 128.752 82.1917 -117.409 -1.2342e-005 -1.77723e-006 3.0001 -8.02894 -4.95147 -0.697676 -179.9 11.031 -2.01054 180 7.01589e-015 179.125 178.322 11.119 179.57 -1.25957e-006 -6.71339e-007 0.0984451 -19.2469 68.3004 19.791 8.16677 25.7354 -3.50035 -175.638 12.8781 0.362801 4.54188e-006 -4.6773e-006 -0.951204 -3.93111 -15.7586 -0.037141 2.966e-007 -4.00428e-006 -0.227353 20.277 69.9168 -21.2771 -8.17217 25.8553 2.69622 
